<mxfile host="app.diagrams.net" modified="2024-01-22T02:57:18.901Z" agent="Mozilla/5.0 (Macintosh; Intel Mac OS X 10_15_7) AppleWebKit/537.36 (KHTML, like Gecko) Chrome/120.0.0.0 Safari/537.36" version="22.1.21" etag="N09cD9M9NsXwI1uTibVJ" type="github">
  <diagram name="第 1 页" id="0E9BC4bbS4CplKJNAkFY">
    <mxGraphModel>
      <root>
        <mxCell id="0" />
        <mxCell id="1" parent="0" />
      </root>
    </mxGraphModel>
  </diagram>
</mxfile>
